<svg id="Layer_1" data-name="Layer 1" xmlns="http://www.w3.org/2000/svg" viewBox="0 0 501.19 220">
  <defs>
    <style>
      .cls-1 {
        fill: #00f3f0;
      }

      .cls-2 {
        fill: #005952;
      }

      .cls-3 {
        fill: #ff8c95;
      }
    </style>
  </defs>
  <title>md-logo</title>
  <path class="cls-1" d="M59.26,1.68c-46.5,0-54.67,87.79-55.43,199.84a20,20,0,0,0,20,20.16H94.63a20,20,0,0,0,20-20.28C113.23,89.4,99.6,1.68,59.26,1.68Z" transform="translate(-3.82 -1.68)"/>
  <path class="cls-2" d="M199.26,1.68c-46.5,0-54.67,87.79-55.43,199.84a20,20,0,0,0,20,20.16h70.81a20,20,0,0,0,20-20.28C253.23,89.4,239.6,1.68,199.26,1.68Z" transform="translate(-3.82 -1.68)"/>
  <path class="cls-3" d="M505,111.73C505,22.55,423.36,6.34,318.72,4.66a21,21,0,0,0-21.34,21v173a20,20,0,0,0,20.5,20C422.93,215.78,505,189.35,505,111.73Z" transform="translate(-3.82 -1.68)"/>
</svg>
